<svg width="134" height="27" fill="none" xmlns="http://www.w3.org/2000/svg"><path d="M.562 6.383c0-2.074.375-3.516 1.125-4.324.761-.82 2.08-1.23 3.955-1.23h4.464v2.355H7.98c-.914 0-1.535.175-1.863.527-.316.34-.474.99-.474 1.951v4.746h3.99v2.338h-3.99V26H.562V6.383zM11.495 26V10.408h5.08V26h-5.08zM11.39 4.01c0-.739.258-1.365.773-1.881.527-.527 1.154-.791 1.88-.791.75 0 1.384.258 1.9.773.515.516.773 1.149.773 1.899a2.53 2.53 0 0 1-.791 1.88 2.56 2.56 0 0 1-1.881.774 2.598 2.598 0 0 1-1.88-.773 2.598 2.598 0 0 1-.774-1.881zM23.677 26V13.08H19.51v-2.672h13.43v2.672h-4.184V26h-5.08zM44.358 3.475l2.394 3.785c.482-.26.841-.57 1.076-.928.247-.371.371-.78.371-1.225 0-.63-.21-1.162-.63-1.595a2.065 2.065 0 0 0-1.54-.65c-.372 0-.693.05-.966.149a1.71 1.71 0 0 0-.705.464zm4.398 18.499l-5.233-7.868c-.643.334-1.131.786-1.465 1.355-.322.557-.483 1.218-.483 1.985 0 1.373.489 2.573 1.466 3.6.99 1.027 2.134 1.54 3.433 1.54.383 0 .76-.05 1.132-.148a6.401 6.401 0 0 0 1.15-.464zM51.539 26l-1.187-1.781a9.856 9.856 0 0 1-3.1 1.781c-1.125.384-2.368.575-3.729.575-2.498 0-4.57-.748-6.215-2.245-1.633-1.497-2.45-3.37-2.45-5.622 0-1.596.483-3.018 1.448-4.268.977-1.249 2.597-2.51 4.861-3.785l-2.208-4.082c0-1.707.594-3.117 1.781-4.23 1.2-1.126 2.71-1.689 4.528-1.689 1.645 0 2.987.477 4.026 1.429 1.039.94 1.559 2.146 1.559 3.618a4.98 4.98 0 0 1-.557 2.32c-.371.717-.922 1.366-1.651 1.948l4.638 7.106a5.757 5.757 0 0 0 .65-1.707c.148-.63.222-1.354.222-2.17 0-.285-.018-.6-.055-.947a17.97 17.97 0 0 0-.167-1.15h2.505c.024.247.043.513.055.797.012.273.019.68.019 1.225 0 1.36-.136 2.554-.409 3.581-.272 1.027-.692 1.936-1.261 2.728L59.202 26H51.54zm9.233 0v-2.338h4.149c.96 0 1.629-.129 2.004-.387.386-.27.58-.714.58-1.335 0-.797-.78-1.43-2.338-1.899-.469-.14-.838-.252-1.107-.334-1.536-.504-2.59-1.072-3.165-1.705-.562-.633-.843-1.494-.843-2.584 0-1.629.533-2.871 1.6-3.727 1.078-.855 2.636-1.283 4.675-1.283h4.06v2.338h-3.515c-.574 0-1.025.106-1.353.316-.329.2-.493.481-.493.844 0 .645.68 1.178 2.04 1.6.304.105.533.181.685.228 1.664.54 2.789 1.155 3.375 1.846.586.692.879 1.664.879 2.918 0 1.711-.54 3.059-1.617 4.043-1.067.973-2.543 1.459-4.43 1.459h-5.185zm12.71 0l4.06-12.709c.398-1.266.85-2.145 1.353-2.637.516-.492 1.208-.738 2.075-.738.808 0 1.441.217 1.898.65.457.434.88 1.26 1.266 2.479L88.335 26h-5.326l-.862-2.848h-5.185L76.136 26H73.48zm4.13-5.01h3.885l-1.863-6.767-2.022 6.767zm16.067-5.15V26h-2.514V12.94c0-1.043.205-1.805.615-2.286.422-.492 1.067-.738 1.934-.738a3.17 3.17 0 0 1 1.916.615c.562.399 1.137 1.078 1.723 2.04l3.498 5.66v-7.823h2.478v13.57c0 .938-.141 1.606-.422 2.004-.269.399-.715.598-1.336.598a1.98 1.98 0 0 1-1.283-.474c-.387-.317-.861-.915-1.424-1.794L93.68 15.84zM110.308 26V13.08h-4.166v-2.672h13.429v2.672h-4.183V26h-5.08zm15.38 0c-1.207 0-2.062-.264-2.566-.791-.492-.54-.738-1.465-.738-2.777v-8.455c0-1.313.246-2.233.738-2.76.504-.54 1.359-.809 2.566-.809h7.243v2.338h-3.85c-.644 0-1.078.117-1.301.352-.211.234-.316.697-.316 1.388v2.55h4.887v2.337h-4.887v2.602c0 .68.105 1.13.316 1.353.211.223.645.334 1.301.334h4.096V26h-7.489zm-.158-18.035l3.586-6.117h3.533l-5.009 6.117h-2.11z" fill="#000"/><path d="M.562 6.383c0-2.074.375-3.516 1.125-4.324.761-.82 2.08-1.23 3.955-1.23h4.464v2.355H7.98c-.914 0-1.535.175-1.863.527-.316.34-.474.99-.474 1.951v4.746h3.99v2.338h-3.99V26H.562V6.383zM11.495 26V10.408h5.08V26h-5.08zM11.39 4.01c0-.739.258-1.365.773-1.881.527-.527 1.154-.791 1.88-.791.75 0 1.384.258 1.9.773.515.516.773 1.149.773 1.899a2.53 2.53 0 0 1-.791 1.88 2.56 2.56 0 0 1-1.881.774 2.598 2.598 0 0 1-1.88-.773 2.598 2.598 0 0 1-.774-1.881zM23.677 26V13.08H19.51v-2.672h13.43v2.672h-4.184V26h-5.08zM44.358 3.475l2.394 3.785c.482-.26.841-.57 1.076-.928.247-.371.371-.78.371-1.225 0-.63-.21-1.162-.63-1.595a2.065 2.065 0 0 0-1.54-.65c-.372 0-.693.05-.966.149a1.71 1.71 0 0 0-.705.464zm4.398 18.499l-5.233-7.868c-.643.334-1.131.786-1.465 1.355-.322.557-.483 1.218-.483 1.985 0 1.373.489 2.573 1.466 3.6.99 1.027 2.134 1.54 3.433 1.54.383 0 .76-.05 1.132-.148a6.401 6.401 0 0 0 1.15-.464zM51.539 26l-1.187-1.781a9.856 9.856 0 0 1-3.1 1.781c-1.125.384-2.368.575-3.729.575-2.498 0-4.57-.748-6.215-2.245-1.633-1.497-2.45-3.37-2.45-5.622 0-1.596.483-3.018 1.448-4.268.977-1.249 2.597-2.51 4.861-3.785l-2.208-4.082c0-1.707.594-3.117 1.781-4.23 1.2-1.126 2.71-1.689 4.528-1.689 1.645 0 2.987.477 4.026 1.429 1.039.94 1.559 2.146 1.559 3.618a4.98 4.98 0 0 1-.557 2.32c-.371.717-.922 1.366-1.651 1.948l4.638 7.106a5.757 5.757 0 0 0 .65-1.707c.148-.63.222-1.354.222-2.17 0-.285-.018-.6-.055-.947a17.97 17.97 0 0 0-.167-1.15h2.505c.024.247.043.513.055.797.012.273.019.68.019 1.225 0 1.36-.136 2.554-.409 3.581-.272 1.027-.692 1.936-1.261 2.728L59.202 26H51.54zm9.233 0v-2.338h4.149c.96 0 1.629-.129 2.004-.387.386-.27.58-.714.58-1.335 0-.797-.78-1.43-2.338-1.899-.469-.14-.838-.252-1.107-.334-1.536-.504-2.59-1.072-3.165-1.705-.562-.633-.843-1.494-.843-2.584 0-1.629.533-2.871 1.6-3.727 1.078-.855 2.636-1.283 4.675-1.283h4.06v2.338h-3.515c-.574 0-1.025.106-1.353.316-.329.2-.493.481-.493.844 0 .645.68 1.178 2.04 1.6.304.105.533.181.685.228 1.664.54 2.789 1.155 3.375 1.846.586.692.879 1.664.879 2.918 0 1.711-.54 3.059-1.617 4.043-1.067.973-2.543 1.459-4.43 1.459h-5.185zm12.71 0l4.06-12.709c.398-1.266.85-2.145 1.353-2.637.516-.492 1.208-.738 2.075-.738.808 0 1.441.217 1.898.65.457.434.88 1.26 1.266 2.479L88.335 26h-5.326l-.862-2.848h-5.185L76.136 26H73.48zm4.13-5.01h3.885l-1.863-6.767-2.022 6.767zm16.067-5.15V26h-2.514V12.94c0-1.043.205-1.805.615-2.286.422-.492 1.067-.738 1.934-.738a3.17 3.17 0 0 1 1.916.615c.562.399 1.137 1.078 1.723 2.04l3.498 5.66v-7.823h2.478v13.57c0 .938-.141 1.606-.422 2.004-.269.399-.715.598-1.336.598a1.98 1.98 0 0 1-1.283-.474c-.387-.317-.861-.915-1.424-1.794L93.68 15.84zM110.308 26V13.08h-4.166v-2.672h13.429v2.672h-4.183V26h-5.08zm15.38 0c-1.207 0-2.062-.264-2.566-.791-.492-.54-.738-1.465-.738-2.777v-8.455c0-1.313.246-2.233.738-2.76.504-.54 1.359-.809 2.566-.809h7.243v2.338h-3.85c-.644 0-1.078.117-1.301.352-.211.234-.316.697-.316 1.388v2.55h4.887v2.337h-4.887v2.602c0 .68.105 1.13.316 1.353.211.223.645.334 1.301.334h4.096V26h-7.489zm-.158-18.035l3.586-6.117h3.533l-5.009 6.117h-2.11z" fill="url(#paint0_linear)"/><defs><linearGradient id="paint0_linear" x1="20" y1="16" x2="94.5" y2="26" gradientUnits="userSpaceOnUse"><stop stop-color="#00D66F"/><stop offset="1" stop-color="#14A6D3"/></linearGradient></defs></svg>